<?xml version="1.0" encoding="UTF-8"?>
<svg xmlns="http://www.w3.org/2000/svg" viewBox="0 0 640 360" width="640" height="360">
  <defs>
    <linearGradient id="bg" x1="0" y1="0" x2="0" y2="1">
      <stop offset="0%" stop-color="#F7FBFF"/>
      <stop offset="100%" stop-color="#EEF5FF"/>
    </linearGradient>
  </defs>
  <rect width="640" height="360" fill="url(#bg)"/>
  <rect x="8" y="8" width="624" height="344" rx="16" fill="#fff" stroke="#F4B942" stroke-width="4"/>
  
      <g transform="translate(24, 56)">
        <rect width="280" height="120" rx="10" fill="#fff" stroke="#CFD8DC" stroke-width="2"/>
        <svg width="280" height="120" viewBox="0 0 640 360" preserveAspectRatio="xMidYMid slice">
    <circle cx="210" cy="55" r="28" fill="#FFB703" opacity="0.95"/>
    <g stroke="#FFB703" stroke-width="4" stroke-linecap="round">
      <line x1="246" y1="55" x2="258" y2="55"/><line x1="235.45584412271572" y1="80.45584412271572" x2="243.94112549695427" y2="88.94112549695427"/><line x1="210" y1="91" x2="210" y2="103"/><line x1="184.54415587728428" y1="80.45584412271572" x2="176.05887450304573" y2="88.94112549695429"/><line x1="174" y1="55.00000000000001" x2="162" y2="55.00000000000001"/><line x1="184.54415587728428" y1="29.54415587728429" x2="176.05887450304573" y2="21.058874503045722"/><line x1="210" y1="19" x2="210" y2="7"/><line x1="235.4558441227157" y1="29.544155877284282" x2="243.94112549695427" y2="21.058874503045715"/>
    </g>
    <g fill="#fff" opacity="0.95">
      <ellipse cx="90" cy="60" rx="34" ry="18"/>
      <ellipse cx="68" cy="64" rx="20" ry="14"/>
      <ellipse cx="114" cy="66" rx="24" ry="16"/>
    </g>
    <g fill="#fff" opacity="0.95">
      <ellipse cx="130" cy="85" rx="34" ry="18"/>
      <ellipse cx="108" cy="89" rx="20" ry="14"/>
      <ellipse cx="154" cy="91" rx="24" ry="16"/>
    </g><rect x="0" y="110" width="280" height="250" fill="#87CEAC"/><rect x="0" y="0" width="280" height="110" fill="#D9F2FF"/>
    <g transform="translate(140, 100) scale(1)">
      <rect x="-28" y="-10" width="56" height="42" fill="#FFF8E7" stroke="#5D4037" stroke-width="2"/>
      <polygon points="-34,-10 0,-38 34,-10" fill="#6C63FF"/>
      <rect x="-8" y="8" width="16" height="24" fill="#6D4C41"/>
      <rect x="12" y="-2" width="12" height="12" fill="#81D4FA"/>
    </g>
    <g transform="translate(100, 110) scale(1)">
      <rect x="-4" y="0" width="8" height="24" fill="#8D6E63"/>
      <circle cx="0" cy="-8" r="22" fill="#43A047"/>
      <circle cx="-14" cy="0" r="16" fill="#66BB6A"/>
      <circle cx="14" cy="0" r="16" fill="#66BB6A"/>
    </g>
    <g transform="translate(230, 104) scale(1)">
      <circle cx="0" cy="-34" r="12" fill="#F4C095"/>
      <rect x="-11" y="-22" width="22" height="26" rx="8" fill="#FFB703"/>
      <rect x="-9" y="4" width="8" height="22" rx="4" fill="#455A64"/>
      <rect x="1" y="4" width="8" height="22" rx="4" fill="#455A64"/>
      
    </g></svg>
        <text x="14" y="18" font-family="Arial, sans-serif" font-size="12" font-weight="700" fill="#3949AB">1</text>
      </g>
      <g transform="translate(324, 56)">
        <rect width="280" height="120" rx="10" fill="#fff" stroke="#CFD8DC" stroke-width="2"/>
        <svg width="280" height="120" viewBox="0 0 640 360" preserveAspectRatio="xMidYMid slice">
    <circle cx="210" cy="55" r="28" fill="#FFB703" opacity="0.95"/>
    <g stroke="#FFB703" stroke-width="4" stroke-linecap="round">
      <line x1="246" y1="55" x2="258" y2="55"/><line x1="235.45584412271572" y1="80.45584412271572" x2="243.94112549695427" y2="88.94112549695427"/><line x1="210" y1="91" x2="210" y2="103"/><line x1="184.54415587728428" y1="80.45584412271572" x2="176.05887450304573" y2="88.94112549695429"/><line x1="174" y1="55.00000000000001" x2="162" y2="55.00000000000001"/><line x1="184.54415587728428" y1="29.54415587728429" x2="176.05887450304573" y2="21.058874503045722"/><line x1="210" y1="19" x2="210" y2="7"/><line x1="235.4558441227157" y1="29.544155877284282" x2="243.94112549695427" y2="21.058874503045715"/>
    </g>
    <g fill="#fff" opacity="0.95">
      <ellipse cx="90" cy="60" rx="34" ry="18"/>
      <ellipse cx="68" cy="64" rx="20" ry="14"/>
      <ellipse cx="114" cy="66" rx="24" ry="16"/>
    </g>
    <g fill="#fff" opacity="0.95">
      <ellipse cx="130" cy="85" rx="34" ry="18"/>
      <ellipse cx="108" cy="89" rx="20" ry="14"/>
      <ellipse cx="154" cy="91" rx="24" ry="16"/>
    </g><rect x="0" y="110" width="280" height="250" fill="#87CEAC"/><rect x="0" y="0" width="280" height="110" fill="#D9F2FF"/>
    <g transform="translate(140, 100) scale(1)">
      <rect x="-28" y="-10" width="56" height="42" fill="#FFF8E7" stroke="#5D4037" stroke-width="2"/>
      <polygon points="-34,-10 0,-38 34,-10" fill="#6C63FF"/>
      <rect x="-8" y="8" width="16" height="24" fill="#6D4C41"/>
      <rect x="12" y="-2" width="12" height="12" fill="#81D4FA"/>
    </g>
    <g transform="translate(100, 110) scale(1)">
      <rect x="-4" y="0" width="8" height="24" fill="#8D6E63"/>
      <circle cx="0" cy="-8" r="22" fill="#43A047"/>
      <circle cx="-14" cy="0" r="16" fill="#66BB6A"/>
      <circle cx="14" cy="0" r="16" fill="#66BB6A"/>
    </g>
    <g transform="translate(230, 104) scale(1)">
      <circle cx="0" cy="-34" r="12" fill="#F4C095"/>
      <rect x="-11" y="-22" width="22" height="26" rx="8" fill="#FFB703"/>
      <rect x="-9" y="4" width="8" height="22" rx="4" fill="#455A64"/>
      <rect x="1" y="4" width="8" height="22" rx="4" fill="#455A64"/>
      
    </g></svg>
        <text x="14" y="18" font-family="Arial, sans-serif" font-size="12" font-weight="700" fill="#3949AB">2</text>
      </g>
      <g transform="translate(24, 188)">
        <rect width="280" height="120" rx="10" fill="#fff" stroke="#CFD8DC" stroke-width="2"/>
        <svg width="280" height="120" viewBox="0 0 640 360" preserveAspectRatio="xMidYMid slice">
    <circle cx="210" cy="55" r="28" fill="#FFB703" opacity="0.95"/>
    <g stroke="#FFB703" stroke-width="4" stroke-linecap="round">
      <line x1="246" y1="55" x2="258" y2="55"/><line x1="235.45584412271572" y1="80.45584412271572" x2="243.94112549695427" y2="88.94112549695427"/><line x1="210" y1="91" x2="210" y2="103"/><line x1="184.54415587728428" y1="80.45584412271572" x2="176.05887450304573" y2="88.94112549695429"/><line x1="174" y1="55.00000000000001" x2="162" y2="55.00000000000001"/><line x1="184.54415587728428" y1="29.54415587728429" x2="176.05887450304573" y2="21.058874503045722"/><line x1="210" y1="19" x2="210" y2="7"/><line x1="235.4558441227157" y1="29.544155877284282" x2="243.94112549695427" y2="21.058874503045715"/>
    </g>
    <g fill="#fff" opacity="0.95">
      <ellipse cx="90" cy="60" rx="34" ry="18"/>
      <ellipse cx="68" cy="64" rx="20" ry="14"/>
      <ellipse cx="114" cy="66" rx="24" ry="16"/>
    </g>
    <g fill="#fff" opacity="0.95">
      <ellipse cx="130" cy="85" rx="34" ry="18"/>
      <ellipse cx="108" cy="89" rx="20" ry="14"/>
      <ellipse cx="154" cy="91" rx="24" ry="16"/>
    </g><rect x="0" y="110" width="280" height="250" fill="#87CEAC"/><rect x="0" y="0" width="280" height="110" fill="#D9F2FF"/>
    <g transform="translate(140, 100) scale(1)">
      <rect x="-28" y="-10" width="56" height="42" fill="#FFF8E7" stroke="#5D4037" stroke-width="2"/>
      <polygon points="-34,-10 0,-38 34,-10" fill="#6C63FF"/>
      <rect x="-8" y="8" width="16" height="24" fill="#6D4C41"/>
      <rect x="12" y="-2" width="12" height="12" fill="#81D4FA"/>
    </g>
    <g transform="translate(100, 110) scale(1)">
      <rect x="-4" y="0" width="8" height="24" fill="#8D6E63"/>
      <circle cx="0" cy="-8" r="22" fill="#43A047"/>
      <circle cx="-14" cy="0" r="16" fill="#66BB6A"/>
      <circle cx="14" cy="0" r="16" fill="#66BB6A"/>
    </g>
    <g transform="translate(230, 104) scale(1)">
      <circle cx="0" cy="-34" r="12" fill="#F4C095"/>
      <rect x="-11" y="-22" width="22" height="26" rx="8" fill="#FFB703"/>
      <rect x="-9" y="4" width="8" height="22" rx="4" fill="#455A64"/>
      <rect x="1" y="4" width="8" height="22" rx="4" fill="#455A64"/>
      
    </g></svg>
        <text x="14" y="18" font-family="Arial, sans-serif" font-size="12" font-weight="700" fill="#3949AB">3</text>
      </g>
      <g transform="translate(324, 188)">
        <rect width="280" height="120" rx="10" fill="#fff" stroke="#CFD8DC" stroke-width="2"/>
        <svg width="280" height="120" viewBox="0 0 640 360" preserveAspectRatio="xMidYMid slice">
    <circle cx="210" cy="55" r="28" fill="#FFB703" opacity="0.95"/>
    <g stroke="#FFB703" stroke-width="4" stroke-linecap="round">
      <line x1="246" y1="55" x2="258" y2="55"/><line x1="235.45584412271572" y1="80.45584412271572" x2="243.94112549695427" y2="88.94112549695427"/><line x1="210" y1="91" x2="210" y2="103"/><line x1="184.54415587728428" y1="80.45584412271572" x2="176.05887450304573" y2="88.94112549695429"/><line x1="174" y1="55.00000000000001" x2="162" y2="55.00000000000001"/><line x1="184.54415587728428" y1="29.54415587728429" x2="176.05887450304573" y2="21.058874503045722"/><line x1="210" y1="19" x2="210" y2="7"/><line x1="235.4558441227157" y1="29.544155877284282" x2="243.94112549695427" y2="21.058874503045715"/>
    </g>
    <g fill="#fff" opacity="0.95">
      <ellipse cx="90" cy="60" rx="34" ry="18"/>
      <ellipse cx="68" cy="64" rx="20" ry="14"/>
      <ellipse cx="114" cy="66" rx="24" ry="16"/>
    </g>
    <g fill="#fff" opacity="0.95">
      <ellipse cx="130" cy="85" rx="34" ry="18"/>
      <ellipse cx="108" cy="89" rx="20" ry="14"/>
      <ellipse cx="154" cy="91" rx="24" ry="16"/>
    </g><rect x="0" y="110" width="280" height="250" fill="#87CEAC"/><rect x="0" y="0" width="280" height="110" fill="#D9F2FF"/>
    <g transform="translate(140, 100) scale(1)">
      <rect x="-28" y="-10" width="56" height="42" fill="#FFF8E7" stroke="#5D4037" stroke-width="2"/>
      <polygon points="-34,-10 0,-38 34,-10" fill="#6C63FF"/>
      <rect x="-8" y="8" width="16" height="24" fill="#6D4C41"/>
      <rect x="12" y="-2" width="12" height="12" fill="#81D4FA"/>
    </g>
    <g transform="translate(100, 110) scale(1)">
      <rect x="-4" y="0" width="8" height="24" fill="#8D6E63"/>
      <circle cx="0" cy="-8" r="22" fill="#43A047"/>
      <circle cx="-14" cy="0" r="16" fill="#66BB6A"/>
      <circle cx="14" cy="0" r="16" fill="#66BB6A"/>
    </g>
    <g transform="translate(230, 104) scale(1)">
      <circle cx="0" cy="-34" r="12" fill="#F4C095"/>
      <rect x="-11" y="-22" width="22" height="26" rx="8" fill="#FFB703"/>
      <rect x="-9" y="4" width="8" height="22" rx="4" fill="#455A64"/>
      <rect x="1" y="4" width="8" height="22" rx="4" fill="#455A64"/>
      
    </g></svg>
        <text x="14" y="18" font-family="Arial, sans-serif" font-size="12" font-weight="700" fill="#3949AB">4</text>
      </g>
  <rect x="24" y="20" width="64" height="28" rx="14" fill="#F4B942"/><text x="36" y="40" font-family="Arial, sans-serif" font-size="14" font-weight="700" fill="#5D4037">Story</text>
  <text x="320" y="34" text-anchor="middle" font-family="Arial, sans-serif" font-size="18" font-weight="700" fill="#1A237E">Ket Gold Mock 3 Story</text>
  <text x="320" y="342" text-anchor="middle" font-family="Arial, sans-serif" font-size="12" fill="#546E7A">Your English teacher has asked you to write a story. Your story must begin with this sente…</text>
</svg>