<?xml version="1.0" encoding="UTF-8"?>
<svg xmlns="http://www.w3.org/2000/svg" viewBox="0 0 640 360" width="640" height="360">
  <defs>
    <linearGradient id="bg" x1="0" y1="0" x2="0" y2="1">
      <stop offset="0%" stop-color="#F7FBFF"/>
      <stop offset="100%" stop-color="#EEF5FF"/>
    </linearGradient>
  </defs>
  <rect width="640" height="360" fill="url(#bg)"/>
  <rect x="8" y="8" width="624" height="344" rx="16" fill="#fff" stroke="#F4B942" stroke-width="4"/>
  
    <rect x="40" y="48" width="560" height="280" rx="12" fill="#263238"/>
    <svg x="48" y="56" width="544" height="264" viewBox="0 0 640 360">
    <circle cx="490" cy="55" r="28" fill="#FFD166" opacity="0.95"/>
    <g stroke="#FFD166" stroke-width="4" stroke-linecap="round">
      <line x1="526" y1="55" x2="538" y2="55"/><line x1="515.4558441227157" y1="80.45584412271572" x2="523.9411254969543" y2="88.94112549695427"/><line x1="490" y1="91" x2="490" y2="103"/><line x1="464.5441558772843" y1="80.45584412271572" x2="456.05887450304573" y2="88.94112549695429"/><line x1="454" y1="55.00000000000001" x2="442" y2="55.00000000000001"/><line x1="464.5441558772843" y1="29.54415587728429" x2="456.05887450304573" y2="21.058874503045722"/><line x1="490" y1="19" x2="490" y2="7"/><line x1="515.4558441227157" y1="29.544155877284282" x2="523.9411254969543" y2="21.058874503045715"/>
    </g>
    <g fill="#fff" opacity="0.95">
      <ellipse cx="90" cy="60" rx="34" ry="18"/>
      <ellipse cx="68" cy="64" rx="20" ry="14"/>
      <ellipse cx="114" cy="66" rx="24" ry="16"/>
    </g>
    <g fill="#fff" opacity="0.95">
      <ellipse cx="410" cy="85" rx="34" ry="18"/>
      <ellipse cx="388" cy="89" rx="20" ry="14"/>
      <ellipse cx="434" cy="91" rx="24" ry="16"/>
    </g><rect x="0" y="230" width="560" height="130" fill="#95D86E"/><rect x="0" y="0" width="560" height="230" fill="#B8E6FF"/>
    <g transform="translate(360, 222) scale(0.9)">
      <rect x="-28" y="-10" width="56" height="42" fill="#FFF8E7" stroke="#5D4037" stroke-width="2"/>
      <polygon points="-34,-10 0,-38 34,-10" fill="#FF8C42"/>
      <rect x="-8" y="8" width="16" height="24" fill="#6D4C41"/>
      <rect x="12" y="-2" width="12" height="12" fill="#81D4FA"/>
    </g>
      <g transform="translate(240, 210)">
        <ellipse cx="0" cy="8" rx="22" ry="14" fill="#FFB74D"/>
        <circle cx="0" cy="-8" r="14" fill="#FFB74D"/>
        <polygon points="-10,-22 -4,-14 -12,-12" fill="#FFB74D"/>
        <polygon points="10,-22 4,-14 12,-12" fill="#FFB74D"/>
        <circle cx="-4" cy="-10" r="2" fill="#333"/>
        <circle cx="4" cy="-10" r="2" fill="#333"/>
      </g></svg>
  <rect x="24" y="20" width="64" height="28" rx="14" fill="#F4B942"/><text x="36" y="40" font-family="Arial, sans-serif" font-size="14" font-weight="700" fill="#5D4037">Photo</text>
  <text x="320" y="34" text-anchor="middle" font-family="Arial, sans-serif" font-size="18" font-weight="700" fill="#1A237E">Speaking photo</text>
  <text x="320" y="342" text-anchor="middle" font-family="Arial, sans-serif" font-size="12" fill="#546E7A">Look at the photograph. Describe the place and the people, and explain why they might be t…</text>
</svg>