<?xml version="1.0" encoding="UTF-8"?>
<svg xmlns="http://www.w3.org/2000/svg" viewBox="0 0 640 360" width="640" height="360">
  <defs>
    <linearGradient id="bg" x1="0" y1="0" x2="0" y2="1">
      <stop offset="0%" stop-color="#F7FBFF"/>
      <stop offset="100%" stop-color="#EEF5FF"/>
    </linearGradient>
  </defs>
  <rect width="640" height="360" fill="url(#bg)"/>
  <rect x="8" y="8" width="624" height="344" rx="16" fill="#fff" stroke="#F4B942" stroke-width="4"/>
  
    <circle cx="570" cy="55" r="28" fill="#5C6BC0" opacity="0.95"/>
    <g stroke="#5C6BC0" stroke-width="4" stroke-linecap="round">
      <line x1="606" y1="55" x2="618" y2="55"/><line x1="595.4558441227157" y1="80.45584412271572" x2="603.9411254969543" y2="88.94112549695427"/><line x1="570" y1="91" x2="570" y2="103"/><line x1="544.5441558772843" y1="80.45584412271572" x2="536.0588745030457" y2="88.94112549695429"/><line x1="534" y1="55.00000000000001" x2="522" y2="55.00000000000001"/><line x1="544.5441558772843" y1="29.54415587728429" x2="536.0588745030457" y2="21.058874503045722"/><line x1="570" y1="19" x2="570" y2="7"/><line x1="595.4558441227157" y1="29.544155877284282" x2="603.9411254969543" y2="21.058874503045715"/>
    </g>
    <g fill="#fff" opacity="0.95">
      <ellipse cx="90" cy="60" rx="34" ry="18"/>
      <ellipse cx="68" cy="64" rx="20" ry="14"/>
      <ellipse cx="114" cy="66" rx="24" ry="16"/>
    </g>
    <g fill="#fff" opacity="0.95">
      <ellipse cx="490" cy="85" rx="34" ry="18"/>
      <ellipse cx="468" cy="89" rx="20" ry="14"/>
      <ellipse cx="514" cy="91" rx="24" ry="16"/>
    </g><rect x="0" y="255" width="640" height="105" fill="#A5D6A7"/><rect x="0" y="0" width="640" height="255" fill="#E0F7FA"/>
    <g transform="translate(320, 245) scale(1)">
      <rect x="-28" y="-10" width="56" height="42" fill="#FFF8E7" stroke="#5D4037" stroke-width="2"/>
      <polygon points="-34,-10 0,-38 34,-10" fill="#FF7043"/>
      <rect x="-8" y="8" width="16" height="24" fill="#6D4C41"/>
      <rect x="12" y="-2" width="12" height="12" fill="#81D4FA"/>
    </g>
    <g transform="translate(100, 255) scale(1)">
      <rect x="-4" y="0" width="8" height="24" fill="#8D6E63"/>
      <circle cx="0" cy="-8" r="22" fill="#43A047"/>
      <circle cx="-14" cy="0" r="16" fill="#66BB6A"/>
      <circle cx="14" cy="0" r="16" fill="#66BB6A"/>
    </g>
    <g transform="translate(410, 249) scale(1)">
      <circle cx="0" cy="-34" r="12" fill="#F4C095"/>
      <rect x="-11" y="-22" width="22" height="26" rx="8" fill="#5C6BC0"/>
      <rect x="-9" y="4" width="8" height="22" rx="4" fill="#455A64"/>
      <rect x="1" y="4" width="8" height="22" rx="4" fill="#455A64"/>
      
    </g>
  <rect x="24" y="20" width="88" height="28" rx="14" fill="#F4B942"/><text x="36" y="40" font-family="Arial, sans-serif" font-size="14" font-weight="700" fill="#5D4037">Part 1/4</text>
  <text x="320" y="34" text-anchor="middle" font-family="Arial, sans-serif" font-size="18" font-weight="700" fill="#1A237E">059 Story 1 Arrive</text>
  <text x="320" y="342" text-anchor="middle" font-family="Arial, sans-serif" font-size="12" fill="#546E7A">Look at these pictures and tell the story of a family camping trip by the lake. Describe w…</text>
</svg>