<?xml version="1.0" encoding="UTF-8"?>
<svg xmlns="http://www.w3.org/2000/svg" viewBox="0 0 640 360" width="640" height="360">
  <defs>
    <linearGradient id="bg" x1="0" y1="0" x2="0" y2="1">
      <stop offset="0%" stop-color="#F7FBFF"/>
      <stop offset="100%" stop-color="#EEF5FF"/>
    </linearGradient>
  </defs>
  <rect width="640" height="360" fill="url(#bg)"/>
  <rect x="8" y="8" width="624" height="344" rx="16" fill="#fff" stroke="#F4B942" stroke-width="4"/>
  
      <g transform="translate(24, 52)">
        <rect x="0" y="0" width="300" height="250" rx="12" fill="#FAFAFA" stroke="#CFD8DC" stroke-width="2"/>
        <svg x="0" y="0" width="300" height="250" viewBox="0 0 640 360" preserveAspectRatio="xMidYMid slice">
    <circle cx="230" cy="55" r="28" fill="#FFD166" opacity="0.95"/>
    <g stroke="#FFD166" stroke-width="4" stroke-linecap="round">
      <line x1="266" y1="55" x2="278" y2="55"/><line x1="255.45584412271572" y1="80.45584412271572" x2="263.94112549695427" y2="88.94112549695427"/><line x1="230" y1="91" x2="230" y2="103"/><line x1="204.54415587728428" y1="80.45584412271572" x2="196.05887450304573" y2="88.94112549695429"/><line x1="194" y1="55.00000000000001" x2="182" y2="55.00000000000001"/><line x1="204.54415587728428" y1="29.54415587728429" x2="196.05887450304573" y2="21.058874503045722"/><line x1="230" y1="19" x2="230" y2="7"/><line x1="255.4558441227157" y1="29.544155877284282" x2="263.94112549695427" y2="21.058874503045715"/>
    </g>
    <g fill="#fff" opacity="0.95">
      <ellipse cx="90" cy="60" rx="34" ry="18"/>
      <ellipse cx="68" cy="64" rx="20" ry="14"/>
      <ellipse cx="114" cy="66" rx="24" ry="16"/>
    </g>
    <g fill="#fff" opacity="0.95">
      <ellipse cx="150" cy="85" rx="34" ry="18"/>
      <ellipse cx="128" cy="89" rx="20" ry="14"/>
      <ellipse cx="174" cy="91" rx="24" ry="16"/>
    </g><rect x="0" y="220" width="300" height="140" fill="#95D86E"/><rect x="0" y="0" width="300" height="220" fill="#B8E6FF"/>
    <g transform="translate(150, 210) scale(1)">
      <rect x="-28" y="-10" width="56" height="42" fill="#FFF8E7" stroke="#5D4037" stroke-width="2"/>
      <polygon points="-34,-10 0,-38 34,-10" fill="#FF8C42"/>
      <rect x="-8" y="8" width="16" height="24" fill="#6D4C41"/>
      <rect x="12" y="-2" width="12" height="12" fill="#81D4FA"/>
    </g>
    <g transform="translate(100, 220) scale(1)">
      <rect x="-4" y="0" width="8" height="24" fill="#8D6E63"/>
      <circle cx="0" cy="-8" r="22" fill="#43A047"/>
      <circle cx="-14" cy="0" r="16" fill="#66BB6A"/>
      <circle cx="14" cy="0" r="16" fill="#66BB6A"/>
    </g>
    <g transform="translate(240, 214) scale(1)">
      <circle cx="0" cy="-34" r="12" fill="#F4C095"/>
      <rect x="-11" y="-22" width="22" height="26" rx="8" fill="#FFD166"/>
      <rect x="-9" y="4" width="8" height="22" rx="4" fill="#455A64"/>
      <rect x="1" y="4" width="8" height="22" rx="4" fill="#455A64"/>
      
    </g></svg>
        <text x="150" y="236" text-anchor="middle" font-family="Arial, sans-serif" font-size="13" font-weight="700" fill="#37474F">Picture A</text>
      </g>
      <g transform="translate(316, 52)">
        <rect x="0" y="0" width="300" height="250" rx="12" fill="#FAFAFA" stroke="#CFD8DC" stroke-width="2"/>
        <svg x="0" y="0" width="300" height="250" viewBox="0 0 640 360" preserveAspectRatio="xMidYMid slice">
    <circle cx="230" cy="55" r="28" fill="#FFD166" opacity="0.95"/>
    <g stroke="#FFD166" stroke-width="4" stroke-linecap="round">
      <line x1="266" y1="55" x2="278" y2="55"/><line x1="255.45584412271572" y1="80.45584412271572" x2="263.94112549695427" y2="88.94112549695427"/><line x1="230" y1="91" x2="230" y2="103"/><line x1="204.54415587728428" y1="80.45584412271572" x2="196.05887450304573" y2="88.94112549695429"/><line x1="194" y1="55.00000000000001" x2="182" y2="55.00000000000001"/><line x1="204.54415587728428" y1="29.54415587728429" x2="196.05887450304573" y2="21.058874503045722"/><line x1="230" y1="19" x2="230" y2="7"/><line x1="255.4558441227157" y1="29.544155877284282" x2="263.94112549695427" y2="21.058874503045715"/>
    </g>
    <g fill="#fff" opacity="0.95">
      <ellipse cx="90" cy="60" rx="34" ry="18"/>
      <ellipse cx="68" cy="64" rx="20" ry="14"/>
      <ellipse cx="114" cy="66" rx="24" ry="16"/>
    </g>
    <g fill="#fff" opacity="0.95">
      <ellipse cx="150" cy="85" rx="34" ry="18"/>
      <ellipse cx="128" cy="89" rx="20" ry="14"/>
      <ellipse cx="174" cy="91" rx="24" ry="16"/>
    </g><rect x="0" y="220" width="300" height="140" fill="#95D86E"/><rect x="0" y="0" width="300" height="220" fill="#B8E6FF"/>
    <g transform="translate(150, 210) scale(1)">
      <rect x="-28" y="-10" width="56" height="42" fill="#FFF8E7" stroke="#5D4037" stroke-width="2"/>
      <polygon points="-34,-10 0,-38 34,-10" fill="#FF8C42"/>
      <rect x="-8" y="8" width="16" height="24" fill="#6D4C41"/>
      <rect x="12" y="-2" width="12" height="12" fill="#81D4FA"/>
    </g>
    <g transform="translate(100, 220) scale(1)">
      <rect x="-4" y="0" width="8" height="24" fill="#8D6E63"/>
      <circle cx="0" cy="-8" r="22" fill="#43A047"/>
      <circle cx="-14" cy="0" r="16" fill="#66BB6A"/>
      <circle cx="14" cy="0" r="16" fill="#66BB6A"/>
    </g>
    <g transform="translate(240, 214) scale(1)">
      <circle cx="0" cy="-34" r="12" fill="#F4C095"/>
      <rect x="-11" y="-22" width="22" height="26" rx="8" fill="#FFD166"/>
      <rect x="-9" y="4" width="8" height="22" rx="4" fill="#455A64"/>
      <rect x="1" y="4" width="8" height="22" rx="4" fill="#455A64"/>
      
    </g></svg>
        <text x="150" y="236" text-anchor="middle" font-family="Arial, sans-serif" font-size="13" font-weight="700" fill="#37474F">Picture B</text>
      </g>
  <rect x="24" y="20" width="64" height="28" rx="14" fill="#F4B942"/><text x="36" y="40" font-family="Arial, sans-serif" font-size="14" font-weight="700" fill="#5D4037">A / B</text>
  <text x="320" y="34" text-anchor="middle" font-family="Arial, sans-serif" font-size="18" font-weight="700" fill="#1A237E">049 Weather Pair</text>
  <text x="320" y="342" text-anchor="middle" font-family="Arial, sans-serif" font-size="12" fill="#546E7A">Look at the two pictures of a town in different weather. Tell your partner about five diff…</text>
</svg>